<svg width="500" height="161" viewBox="0 0 500 161" fill="none" xmlns="http://www.w3.org/2000/svg">
<g clip-path="url(#clip0_350_34370)">
<rect width="500" height="161" fill="white"/>
<rect width="500" height="161" fill="white"/>
<path d="M50.7997 121.064C46.0433 121.064 41.7862 119.842 38.0284 117.398C34.2706 114.955 31.3011 111.407 29.12 106.756C26.9389 102.104 25.8484 96.4545 25.8484 89.8061C25.8484 83.0788 26.9521 77.4027 29.1594 72.7777C31.3931 68.1264 34.402 64.6183 38.1861 62.2532C41.9702 59.8619 46.1879 58.6662 50.8391 58.6662C54.3867 58.6662 57.3036 59.2706 59.5898 60.4794C61.8761 61.6619 63.6893 63.0941 65.0295 64.7759C66.3697 66.4315 67.4077 67.995 68.1435 69.4666H68.7347V39.2727H83.0433V120H69.0107V110.461H68.1435C67.4077 111.933 66.3434 113.496 64.9506 115.152C63.5579 116.781 61.7184 118.174 59.4322 119.33C57.146 120.486 54.2685 121.064 50.7997 121.064ZM54.7809 109.357C57.8029 109.357 60.3782 108.543 62.5067 106.913C64.6353 105.258 66.2514 102.958 67.3551 100.015C68.4588 97.0721 69.0107 93.6428 69.0107 89.7273C69.0107 85.8118 68.4588 82.4087 67.3551 79.5181C66.2777 76.6275 64.6747 74.3807 62.5462 72.7777C60.4439 71.1747 57.8555 70.3732 54.7809 70.3732C51.6012 70.3732 48.9471 71.201 46.8185 72.8565C44.69 74.5121 43.087 76.7983 42.0096 79.7152C40.9322 82.6321 40.3935 85.9695 40.3935 89.7273C40.3935 93.5114 40.9322 96.8881 42.0096 99.8576C43.1133 102.801 44.7294 105.126 46.858 106.835C49.0128 108.516 51.6538 109.357 54.7809 109.357ZM125.053 121.183C118.982 121.183 113.74 119.921 109.325 117.398C104.937 114.849 101.56 111.249 99.1947 106.598C96.8296 101.92 95.6471 96.4151 95.6471 90.082C95.6471 83.854 96.8296 78.3881 99.1947 73.6843C101.586 68.9542 104.923 65.2752 109.207 62.6474C113.49 59.9933 118.522 58.6662 124.304 58.6662C128.035 58.6662 131.557 59.2706 134.868 60.4794C138.205 61.6619 141.148 63.5014 143.697 65.9979C146.272 68.4943 148.296 71.674 149.767 75.5369C151.239 79.3736 151.975 83.946 151.975 89.2543V93.6296H102.348V84.0117H138.297C138.271 81.2788 137.679 78.848 136.523 76.7195C135.367 74.5646 133.751 72.8697 131.675 71.6346C129.625 70.3995 127.234 69.782 124.501 69.782C121.584 69.782 119.022 70.4915 116.814 71.9105C114.607 73.3033 112.886 75.1428 111.651 77.429C110.442 79.6889 109.824 82.1722 109.798 84.8789V93.2749C109.798 96.7962 110.442 99.8182 111.729 102.341C113.017 104.837 114.817 106.756 117.13 108.096C119.442 109.41 122.149 110.067 125.25 110.067C127.326 110.067 129.205 109.778 130.886 109.2C132.568 108.595 134.027 107.715 135.262 106.559C136.497 105.402 137.43 103.97 138.06 102.262L151.384 103.76C150.543 107.281 148.94 110.356 146.575 112.984C144.236 115.585 141.24 117.609 137.587 119.054C133.935 120.473 129.756 121.183 125.053 121.183ZM190.456 121.183C184.412 121.183 179.222 119.855 174.886 117.201C170.577 114.547 167.252 110.881 164.914 106.204C162.601 101.5 161.445 96.0866 161.445 89.9638C161.445 83.8146 162.627 78.3881 164.993 73.6843C167.358 68.9542 170.695 65.2752 175.005 62.6474C179.341 59.9933 184.465 58.6662 190.377 58.6662C195.292 58.6662 199.641 59.5728 203.425 61.386C207.235 63.1729 210.27 65.7088 212.53 68.9936C214.79 72.2521 216.078 76.0625 216.393 80.4247H202.755C202.203 77.5078 200.889 75.0771 198.813 73.1325C196.763 71.1616 194.017 70.1761 190.575 70.1761C187.658 70.1761 185.096 70.9645 182.888 72.5412C180.681 74.0916 178.96 76.3253 177.724 79.2422C176.516 82.1591 175.911 85.6541 175.911 89.7273C175.911 93.853 176.516 97.4006 177.724 100.37C178.933 103.313 180.628 105.586 182.809 107.189C185.017 108.766 187.605 109.554 190.575 109.554C192.677 109.554 194.556 109.16 196.211 108.372C197.893 107.557 199.299 106.388 200.429 104.864C201.559 103.339 202.334 101.487 202.755 99.3058H216.393C216.051 103.589 214.79 107.386 212.609 110.697C210.428 113.982 207.458 116.558 203.701 118.423C199.943 120.263 195.528 121.183 190.456 121.183ZM242.379 39.2727V120H228.11V39.2727H242.379Z" fill="black"/>
<path d="M345.332 120V59.4545H359.167V69.5455H359.798C360.902 66.0504 362.794 63.3569 365.474 61.4648C368.181 59.5465 371.268 58.5874 374.737 58.5874C375.526 58.5874 376.406 58.6268 377.378 58.7056C378.377 58.7582 379.205 58.8501 379.862 58.9815V72.1076C379.257 71.8974 378.298 71.7134 376.984 71.5557C375.696 71.3718 374.448 71.2798 373.239 71.2798C370.638 71.2798 368.299 71.8448 366.223 72.9748C364.173 74.0785 362.557 75.6158 361.375 77.5866C360.192 79.5575 359.601 81.8306 359.601 84.4059V120H345.332ZM405.68 121.222C401.843 121.222 398.388 120.539 395.313 119.172C392.265 117.779 389.847 115.73 388.06 113.023C386.3 110.316 385.419 106.979 385.419 103.011C385.419 99.5948 386.05 96.7699 387.311 94.5362C388.573 92.3026 390.294 90.5156 392.475 89.1754C394.656 87.8352 397.113 86.8235 399.846 86.1403C402.605 85.4308 405.457 84.9183 408.4 84.603C411.947 84.2351 414.825 83.9066 417.032 83.6175C419.24 83.3022 420.843 82.8292 421.841 82.1985C422.866 81.5415 423.379 80.5298 423.379 79.1633V78.9268C423.379 75.9574 422.498 73.658 420.738 72.0288C418.977 70.3995 416.441 69.5849 413.13 69.5849C409.635 69.5849 406.863 70.3469 404.813 71.8711C402.789 73.3952 401.423 75.1953 400.713 77.2713L387.39 75.3793C388.441 71.7003 390.176 68.6257 392.593 66.1555C395.011 63.6591 397.967 61.7933 401.462 60.5582C404.957 59.2969 408.82 58.6662 413.051 58.6662C415.968 58.6662 418.872 59.0078 421.762 59.691C424.653 60.3743 427.294 61.5043 429.685 63.081C432.077 64.6314 433.995 66.7468 435.44 69.4272C436.912 72.1076 437.648 75.4581 437.648 79.4787V120H423.93V111.683H423.457C422.59 113.365 421.368 114.941 419.792 116.413C418.241 117.858 416.283 119.028 413.918 119.921C411.58 120.788 408.833 121.222 405.68 121.222ZM409.385 110.737C412.25 110.737 414.733 110.172 416.835 109.042C418.938 107.886 420.554 106.362 421.684 104.469C422.84 102.577 423.418 100.515 423.418 98.2809V91.1463C422.971 91.5142 422.209 91.8558 421.132 92.1712C420.081 92.4865 418.898 92.7624 417.584 92.9989C416.27 93.2354 414.969 93.4457 413.682 93.6296C412.394 93.8136 411.277 93.9712 410.331 94.1026C408.203 94.3917 406.298 94.8647 404.616 95.5217C402.934 96.1786 401.607 97.0984 400.635 98.2809C399.662 99.4371 399.176 100.935 399.176 102.775C399.176 105.402 400.135 107.386 402.054 108.727C403.972 110.067 406.416 110.737 409.385 110.737ZM451.996 120V59.4545H466.265V120H451.996ZM459.17 50.8615C456.91 50.8615 454.965 50.1126 453.336 48.6147C451.707 47.0905 450.892 45.2642 450.892 43.1356C450.892 40.9808 451.707 39.1545 453.336 37.6566C454.965 36.1325 456.91 35.3704 459.17 35.3704C461.456 35.3704 463.401 36.1325 465.004 37.6566C466.633 39.1545 467.447 40.9808 467.447 43.1356C467.447 45.2642 466.633 47.0905 465.004 48.6147C463.401 50.1126 461.456 50.8615 459.17 50.8615Z" fill="black"/>
<path d="M254.34 117.5L293.485 50.0081L332.105 117.5H254.34Z" stroke="black" stroke-width="5"/>
<path d="M293.74 54L329 116H258L293.74 54Z" fill="white"/>
<path d="M311.5 85L329 116H258L267.5 99.5L311.5 85Z" fill="black"/>
</g>
<defs>
<clipPath id="clip0_350_34370">
<rect width="500" height="161" fill="white"/>
</clipPath>
</defs>
</svg>
